<?xml version="1.0" encoding="UTF-8" standalone="no"?>
<!-- Generator: Adobe Illustrator 16.0.0, SVG Export Plug-In . SVG Version: 6.00 Build 0)  -->

<svg
   version="1.1"
   id="Layer_1"
   x="0px"
   y="0px"
   width="300mm"
   height="300mm"
   viewBox="0 0 1133.8583 1133.8583"
   enable-background="new 0 0 512 512"
   xml:space="preserve"
   sodipodi:docname="link.svg"
   inkscape:version="1.1.1 (3bf5ae0d25, 2021-09-20)"
   xmlns:inkscape="http://www.inkscape.org/namespaces/inkscape"
   xmlns:sodipodi="http://sodipodi.sourceforge.net/DTD/sodipodi-0.dtd"
   xmlns="http://www.w3.org/2000/svg"
   xmlns:svg="http://www.w3.org/2000/svg"><defs
   id="defs7" /><sodipodi:namedview
   id="namedview5"
   pagecolor="#ffffff"
   bordercolor="#666666"
   borderopacity="1.0"
   inkscape:pageshadow="2"
   inkscape:pageopacity="0.0"
   inkscape:pagecheckerboard="true"
   showgrid="false"
   units="mm"
   inkscape:showpageshadow="false"
   inkscape:zoom="0.56899999"
   inkscape:cx="259.22672"
   inkscape:cy="331.28296"
   inkscape:window-width="1920"
   inkscape:window-height="1009"
   inkscape:window-x="-8"
   inkscape:window-y="-8"
   inkscape:window-maximized="1"
   inkscape:current-layer="Layer_1"
   inkscape:document-units="mm" />

<path
   id="path846"
   style="fill:#b3b3b3;stroke-width:75.5906;stroke-linecap:round;stroke-linejoin:round"
   d="M 566.92969 18.898438 A 548.03149 548.03149 0 0 0 18.898438 566.92969 A 548.03149 548.03149 0 0 0 566.92969 1114.9609 A 548.03149 548.03149 0 0 0 1114.9609 566.92969 A 548.03149 548.03149 0 0 0 566.92969 18.898438 z M 744.26367 188.97461 C 795.60886 188.97461 846.95316 208.56138 886.13867 247.73438 C 964.46277 326.08348 964.46277 453.11691 886.13867 531.46289 L 744.24023 673.31445 C 665.91776 751.68551 538.85958 751.68551 460.53711 673.31445 C 448.19367 661.0196 438.54536 647.15819 430.07031 632.85547 L 496 566.92383 C 499.13484 563.76391 503.00362 561.9524 506.70117 559.82227 C 511.2561 575.39931 519.21663 590.14203 531.46289 602.38672 C 570.57475 641.52366 634.22767 641.47507 673.31445 602.38672 L 815.16602 460.53516 C 854.30296 421.39822 854.30296 357.77202 815.16602 318.66016 C 776.07767 279.5483 712.45139 279.5483 673.31445 318.66016 L 622.86133 369.16016 C 581.93753 353.21635 537.82972 348.93141 494.89648 355.22461 L 602.38672 247.73438 C 641.57225 208.56139 692.91848 188.97461 744.26367 188.97461 z M 531.46094 401.7793 C 582.80926 401.7793 634.15517 421.36607 673.31641 460.53906 C 685.65985 472.85742 695.35831 486.67018 703.7832 501.02148 L 637.85352 566.92773 C 634.71868 570.06258 630.89646 571.82526 627.17383 573.98047 C 622.56875 558.42852 614.60985 543.68602 602.38867 531.46484 C 563.27681 492.3279 499.67405 492.3279 460.53711 531.46484 L 318.66016 673.31641 C 279.54829 712.45178 279.54829 776.07986 318.66016 815.2168 C 357.77202 854.30515 421.42525 854.30515 460.53711 815.2168 L 511.01172 764.7168 C 551.91201 780.63553 596.02216 784.94522 638.98047 778.62695 L 531.46484 886.14258 C 453.11729 964.46508 326.08231 964.46508 247.73633 886.14258 C 169.39035 807.77157 169.39035 680.76168 247.73633 602.39062 L 389.58789 460.53906 C 428.76167 421.36607 480.11261 401.7793 531.46094 401.7793 z " /></svg>
