<?xml version="1.0" encoding="UTF-8" standalone="no"?>
<svg
   enable-background="new 0 0 512 512"
   id="Layer_1"
   version="1.1"
   viewBox="0 0 300 300"
   xml:space="preserve"
   sodipodi:docname="linkedin.svg"
   width="300"
   height="300"
   inkscape:version="1.1.2 (b8e25be8, 2022-02-05)"
   xmlns:inkscape="http://www.inkscape.org/namespaces/inkscape"
   xmlns:sodipodi="http://sodipodi.sourceforge.net/DTD/sodipodi-0.dtd"
   xmlns="http://www.w3.org/2000/svg"
   xmlns:svg="http://www.w3.org/2000/svg"><defs
     id="defs835" /><sodipodi:namedview
     id="namedview833"
     pagecolor="#ffffff"
     bordercolor="#666666"
     borderopacity="1.0"
     inkscape:pageshadow="2"
     inkscape:pageopacity="0.0"
     inkscape:pagecheckerboard="true"
     showgrid="false"
     inkscape:showpageshadow="false"
     inkscape:zoom="1.4042969"
     inkscape:cx="32.044506"
     inkscape:cy="254.5758"
     inkscape:window-width="2576"
     inkscape:window-height="969"
     inkscape:window-x="0"
     inkscape:window-y="25"
     inkscape:window-maximized="0"
     inkscape:current-layer="Layer_1" /><g
     id="g830"
     transform="matrix(0.57266944,0,0,0.57266944,3.5112558,2.8889082)"
     style="fill:#0073b1;fill-opacity:1"><path
       d="m 173.5,508.7 c 0,-2.4 0,-4.7 0,-7 0,-107.7 0,-215.3 0,-323 0,-3 -0.2,-5.4 4.2,-5.4 31.8,0.2 63.7,0.1 95.5,0.1 0.8,0 1.6,0.2 2.9,0.4 0,14 0,27.8 0,41.7 0.4,0.1 0.7,0.3 1.1,0.4 4,-5.2 7.8,-10.6 12,-15.7 12.2,-15 27.5,-26 45.5,-32.6 9.8,-3.6 20.5,-5.8 30.8,-6.3 14.2,-0.6 28.7,-0.4 42.7,2 23,3.9 43.3,14.1 60.1,30.8 15.9,15.7 26.4,34.6 32.1,55.9 3,11.3 4.9,22.9 6.7,34.4 1.2,8 1.8,16.2 1.8,24.2 0.1,65 0.1,130 0.1,195 0,1.6 -0.1,3.2 -0.2,5.3 -1.9,0 -3.5,0 -5.1,0 -30.7,0 -61.3,-0.1 -92,0.1 -5.1,0 -6,-1.7 -6,-6.3 0.1,-59.8 0.3,-119.7 -0.1,-179.5 -0.1,-10.5 -1.1,-21.4 -3.8,-31.5 -4.9,-17.7 -16.1,-30.5 -33.9,-37 -15,-5.5 -30.2,-6.5 -45.6,-2.6 -17,4.3 -28.7,15.6 -37.5,30.5 -6.8,11.5 -8.1,24.2 -8.2,36.9 -0.4,60.7 -0.2,121.3 -0.2,182 0,2.3 0,4.6 0,7.1 -34.5,0.1 -68.4,0.1 -102.9,0.1 z"
       id="path824"
       style="fill:#0073b1;fill-opacity:1" /><path
       d="m 109.1,342.6 c 0,53.3 -0.1,106.6 0.1,159.9 0,4.8 -1,6.6 -6.3,6.5 -30.5,-0.3 -61,-0.3 -91.5,0 -5,0 -6.1,-1.7 -6.1,-6.3 0.1,-107.1 0.1,-214.3 0,-321.4 0,-4.3 1.2,-5.8 5.6,-5.8 30.8,0.2 61.6,0.2 92.5,0 4.8,0 5.7,1.8 5.7,6.1 0,53.7 0,107.4 0,161 z"
       id="path826"
       style="fill:#0073b1;fill-opacity:1" /><path
       d="M 56.1,4.8 C 89,4 108.7,27.9 108.8,57.2 108.9,87.2 87.9,109.6 54.9,109.5 24.2,109.5 2.5,87.5 2.6,56.4 2.7,27.3 23.8,3.8 56.1,4.8 Z"
       id="path828"
       style="fill:#0073b1;fill-opacity:1" /></g></svg>
