<?xml version="1.0" encoding="UTF-8" standalone="no"?>
<svg
   height="300"
   viewBox="-7.19 -5.39 97.7256 97.800864"
   width="300"
   version="1.1"
   id="svg6"
   sodipodi:docname="linktree.svg"
   inkscape:version="1.1.1 (3bf5ae0d25, 2021-09-20)"
   xmlns:inkscape="http://www.inkscape.org/namespaces/inkscape"
   xmlns:sodipodi="http://sodipodi.sourceforge.net/DTD/sodipodi-0.dtd"
   xmlns="http://www.w3.org/2000/svg"
   xmlns:svg="http://www.w3.org/2000/svg">
  <defs
     id="defs10" />
  <sodipodi:namedview
     id="namedview8"
     pagecolor="#ffffff"
     bordercolor="#666666"
     borderopacity="1.0"
     inkscape:pageshadow="2"
     inkscape:pageopacity="0.0"
     inkscape:pagecheckerboard="true"
     showgrid="false"
     inkscape:showpageshadow="false"
     inkscape:zoom="0.19769674"
     inkscape:cx="766.32524"
     inkscape:cy="1140.6359"
     inkscape:window-width="1920"
     inkscape:window-height="1009"
     inkscape:window-x="-8"
     inkscape:window-y="-8"
     inkscape:window-maximized="1"
     inkscape:current-layer="svg6" />
  <path
     d="m 29.557463,5.8570597 c -1.594963,-2.8683329 -5.739031,-2.8683329 -7.332812,0 L -5.1947666,55.583501 c -1.2757342,2.550286 0.637276,5.418619 3.5067912,5.418619 H 16.803668 v 18.806143 c 0,1.91301 1.594963,3.506791 3.507973,3.506791 h 10.839603 c 1.91301,0 3.506791,-1.593781 3.506791,-3.506791 V 61.00212 h -5.100572 c -2.232239,0 -3.82602,-1.593781 -4.14525,-3.506792 0,-0.637276 0,-1.274551 0.31923,-1.918921 L 41.035524,27.844853 Z"
     fill="#39e09b"
     id="path2"
     style="stroke-width:0.118233" />
  <path
     d="m 53.788137,5.8570597 c 1.594963,-2.8683329 5.73903,-2.8683329 7.332811,0 L 88.540366,55.583501 c 1.275735,2.550286 -0.637276,5.418619 -3.506791,5.418619 H 66.859979 v 18.806143 c 0,1.91301 -1.593781,3.506791 -3.510338,3.506791 H 51.875127 c -1.913011,0 -3.506792,-1.593781 -3.506792,-3.506791 V 61.00212 h 5.101755 c 2.231057,0 3.824838,-1.593781 4.144067,-3.506792 0,-0.637276 0,-1.274551 -0.319229,-1.918921 L 41.992029,27.851947 Z"
     fill="#28bf7b"
     id="path4"
     style="stroke-width:0.118233" />
</svg>
