<?xml version="1.0" encoding="UTF-8" standalone="no"?>
<!-- Generator: Adobe Illustrator 18.1.1, SVG Export Plug-In . SVG Version: 6.00 Build 0)  -->

<svg
   version="1.1"
   id="Layer_1"
   x="0px"
   y="0px"
   viewBox="0 0 1133.8583 1133.8583"
   enable-background="new 0 0 144 144"
   xml:space="preserve"
   sodipodi:docname="pinterest.svg"
   width="300mm"
   height="300mm"
   inkscape:version="1.1.1 (3bf5ae0d25, 2021-09-20)"
   xmlns:inkscape="http://www.inkscape.org/namespaces/inkscape"
   xmlns:sodipodi="http://sodipodi.sourceforge.net/DTD/sodipodi-0.dtd"
   xmlns="http://www.w3.org/2000/svg"
   xmlns:svg="http://www.w3.org/2000/svg"><defs
   id="defs11" /><sodipodi:namedview
   id="namedview9"
   pagecolor="#ffffff"
   bordercolor="#666666"
   borderopacity="1.0"
   inkscape:pageshadow="2"
   inkscape:pageopacity="0.0"
   inkscape:pagecheckerboard="true"
   showgrid="false"
   units="mm"
   inkscape:showpageshadow="false"
   inkscape:zoom="0.35763889"
   inkscape:cx="171.96116"
   inkscape:cy="331.33981"
   inkscape:window-width="1680"
   inkscape:window-height="979"
   inkscape:window-x="1912"
   inkscape:window-y="-8"
   inkscape:window-maximized="1"
   inkscape:current-layer="Layer_1"
   inkscape:document-units="mm" />
<g
   id="g6"
   transform="matrix(8.2287011,0,0,8.2287011,-24.714475,-25.12591)"
   style="stroke-width:0.121526">
	<g
   id="g4"
   style="stroke-width:0.121526">
		<path
   fill="#bd081c"
   d="M 71.9,5.4 C 35.1,5.4 5.3,35.2 5.3,72 c 0,28.2 17.5,52.3 42.3,62 -0.6,-5.3 -1.1,-13.3 0.2,-19.1 1.2,-5.2 7.8,-33.1 7.8,-33.1 0,0 -2,-4 -2,-9.9 0,-9.3 5.4,-16.2 12,-16.2 5.7,0 8.4,4.3 8.4,9.4 0,5.7 -3.6,14.3 -5.5,22.2 -1.6,6.6 3.3,12 9.9,12 11.8,0 20.9,-12.5 20.9,-30.5 0,-15.9 -11.5,-27.1 -27.8,-27.1 -18.9,0 -30.1,14.2 -30.1,28.9 0,5.7 2.2,11.9 5,15.2 0.5,0.7 0.6,1.2 0.5,1.9 -0.5,2.1 -1.6,6.6 -1.8,7.5 -0.3,1.2 -1,1.5 -2.2,0.9 -8.3,-3.9 -13.5,-16 -13.5,-25.8 0,-21 15.3,-40.3 44,-40.3 23.1,0 41,16.5 41,38.4 0,22.9 -14.5,41.4 -34.5,41.4 -6.7,0 -13.1,-3.5 -15.3,-7.6 0,0 -3.3,12.7 -4.1,15.8 -1.5,5.8 -5.6,13 -8.3,17.5 6.2,1.9 12.8,3 19.7,3 36.8,0 66.6,-29.8 66.6,-66.6 0,-36.7 -29.8,-66.5 -66.6,-66.5 z"
   id="path2"
   style="stroke-width:0.0558181" />
	</g>
</g>
</svg>
