<?xml version="1.0" encoding="UTF-8" standalone="no"?>
<svg
   viewBox="0 0 362.83466 362.83466"
   width="300mm"
   height="300mm"
   version="1.1"
   id="svg6"
   sodipodi:docname="reddit.svg"
   inkscape:version="1.1.1 (3bf5ae0d25, 2021-09-20)"
   xmlns:inkscape="http://www.inkscape.org/namespaces/inkscape"
   xmlns:sodipodi="http://sodipodi.sourceforge.net/DTD/sodipodi-0.dtd"
   xmlns="http://www.w3.org/2000/svg"
   xmlns:svg="http://www.w3.org/2000/svg">
  <defs
     id="defs10" />
  <sodipodi:namedview
     id="namedview8"
     pagecolor="#ffffff"
     bordercolor="#666666"
     borderopacity="1.0"
     inkscape:pageshadow="2"
     inkscape:pageopacity="0.0"
     inkscape:pagecheckerboard="true"
     showgrid="false"
     units="mm"
     inkscape:showpageshadow="false"
     inkscape:zoom="0.1165312"
     inkscape:cx="261.73249"
     inkscape:cy="1325.8252"
     inkscape:window-width="1680"
     inkscape:window-height="979"
     inkscape:window-x="1912"
     inkscape:window-y="-8"
     inkscape:window-maximized="1"
     inkscape:current-layer="svg6"
     inkscape:document-units="mm" />
  <circle
     cx="181.41733"
     cy="181.41733"
     fill="#ff4500"
     r="175.37009"
     id="circle2"
     style="stroke-width:1" />
  <path
     d="m 298.38917,181.41732 c 0.0351,2.40257 -0.26306,4.80076 -0.89439,7.12003 -0.63133,2.31927 -1.5871,4.54208 -2.84099,6.59391 -1.24951,2.05183 -2.784,3.91953 -4.55524,5.54608 -1.77124,1.62656 -3.76169,2.99445 -5.91436,4.06421 0.0482,0.6401 0.0877,1.28458 0.10961,1.92907 a 47.028995,47.028995 0 0 1 0,3.85814 c -0.0219,0.64448 -0.0614,1.28897 -0.10961,1.92907 0,39.2829 -45.77159,71.20025 -102.24076,71.20025 -56.46916,0 -102.240753,-31.91735 -102.240753,-71.20025 -0.04823,-0.6401 -0.08768,-1.28459 -0.109606,-1.92907 a 47.028995,47.028995 0 0 1 0,-3.85814 c 0.02192,-0.64449 0.06138,-1.28897 0.109606,-1.92907 a 25.620692,25.620692 0 0 1 -13.963843,-16.3445 25.608417,25.608417 0 0 1 3.419717,-21.22855 25.583865,25.583865 0 0 1 18.383169,-11.136 25.604032,25.604032 0 0 1 20.39554,6.7956 125.73816,125.73816 0 0 1 15.73508,-9.07979 c 5.45839,-2.63932 11.10093,-4.88406 16.88375,-6.70791 5.78283,-1.82385 11.6928,-3.22242 17.67731,-4.19134 5.9845,-0.96892 12.03477,-1.49942 18.09819,-1.59149 l 12.97739,-60.853412 c 0.14468,-0.705865 0.42965,-1.372271 0.83739,-1.96853 0.40335,-0.591874 0.92508,-1.100447 1.52572,-1.490645 0.60503,-0.390199 1.2802,-0.657638 1.99045,-0.789166 0.70586,-0.127143 1.43365,-0.11399 2.13513,0.03946 l 42.96567,8.593134 c 4.33603,-7.448845 13.43773,-10.64058 21.47407,-7.53653 8.03633,3.104051 12.63103,11.587579 10.83349,20.014111 -1.79316,8.426528 -9.44807,14.301428 -18.04997,13.858618 -8.60629,-0.44281 -15.61671,-7.0718 -16.5374,-15.638624 l -37.5292,-7.891654 -11.39905,54.715468 c 5.98889,0.12714 11.96462,0.68832 17.87459,1.67478 a 124.66972,124.66972 0 0 1 34.10948,10.89925 124.69339,124.69339 0 0 1 15.53341,8.99649 25.579919,25.579919 0 0 1 12.8897,-6.66845 25.586934,25.586934 0 0 1 14.44611,1.40734 25.597017,25.597017 0 0 1 11.3596,9.03595 25.597017,25.597017 0 0 1 4.621,13.76216 z m -174.03727,24.2493 c 0.88562,2.12636 2.17459,4.05982 3.80553,5.68638 1.62656,1.63094 3.56001,2.91991 5.68637,3.80553 a 17.558491,17.558491 0 0 0 6.71229,1.33281 c 7.09372,0 13.48596,-4.27464 16.2042,-10.82472 2.71385,-6.55445 1.21005,-14.09537 -3.80553,-19.11095 -5.01559,-5.01559 -12.5565,-6.51939 -19.11096,-3.80553 -6.55007,2.71823 -10.82471,9.11047 -10.82471,16.20419 0,2.30173 0.45157,4.58155 1.33281,6.71229 z m 100.44321,42.09759 c 0.89878,-0.87685 1.41173,-2.07375 1.42927,-3.32765 0.0175,-1.25828 -0.46911,-2.46833 -1.34596,-3.3671 -0.87686,-0.89877 -2.07376,-1.41173 -3.32765,-1.42927 -1.25828,-0.0175 -2.46834,0.46912 -3.4811,1.22759 a 57.460008,57.460008 0 0 1 -8.34761,4.97613 57.666068,57.666068 0 0 1 -9.06664,3.50302 c -3.11282,0.90754 -6.30017,1.55202 -9.52259,1.92468 -3.22681,0.37266 -6.47554,0.46912 -9.71551,0.29375 -3.23557,0.14468 -6.47992,0.0131 -9.69358,-0.3902 a 56.561236,56.561236 0 0 1 -9.48752,-2.01676 c -3.10405,-0.93823 -6.11603,-2.13951 -9.01402,-3.58632 -2.89799,-1.4468 -5.66884,-3.13912 -8.28185,-5.05504 -0.90754,-0.74532 -2.0606,-1.12675 -3.23558,-1.06976 -1.17498,0.057 -2.2842,0.55242 -3.1172,1.38104 -0.82863,0.83301 -1.32405,1.94223 -1.38104,3.11721 -0.057,1.17498 0.32443,2.32804 1.06975,3.23558 3.08213,2.32365 6.35717,4.37548 9.79004,6.13795 3.43287,1.76247 7.0148,3.22242 10.69757,4.3711 3.68278,1.14867 7.45762,1.9773 11.28507,2.48148 3.82745,0.49981 7.68998,0.6708 11.54373,0.51296 3.85376,0.15784 7.71629,-0.0131 11.54374,-0.51296 a 67.500384,67.500384 0 0 0 21.98264,-6.85258 c 3.43287,-1.76247 6.70791,-3.8143 9.79003,-6.13795 z m -3.21804,-29.86991 c 2.37627,0.0263 4.735,-0.43404 6.93151,-1.34596 2.19651,-0.91631 4.18257,-2.26666 5.83982,-3.97214 1.65725,-1.70547 2.94622,-3.73099 3.79676,-5.95381 a 17.485274,17.485274 0 0 0 1.14429,-6.96658 c 0,-7.09372 -4.27464,-13.48596 -10.82472,-16.20419 -6.55445,-2.71386 -14.09537,-1.21006 -19.11095,3.80553 -5.01559,5.01558 -6.51938,12.5565 -3.80553,19.11095 2.71823,6.55008 9.11047,10.82472 16.20419,10.82472 z"
     fill="#ffffff"
     id="path4"
     style="stroke-width:1" />
</svg>
