<?xml version="1.0" encoding="UTF-8" standalone="no"?>
<!-- Uploaded to SVGRepo https://www.svgrepo.com -->

<svg
   width="300mm"
   height="300mm"
   viewBox="147.353 39.286 1133.8583 1133.8583"
   version="1.1"
   id="Layer_1"
   x="0px"
   y="0px"
   xml:space="preserve"
   sodipodi:docname="snapchat.svg"
   inkscape:version="1.1.1 (3bf5ae0d25, 2021-09-20)"
   xmlns:inkscape="http://www.inkscape.org/namespaces/inkscape"
   xmlns:sodipodi="http://sodipodi.sourceforge.net/DTD/sodipodi-0.dtd"
   xmlns="http://www.w3.org/2000/svg"
   xmlns:svg="http://www.w3.org/2000/svg"><defs
     id="defs13" /><sodipodi:namedview
     id="namedview11"
     pagecolor="#ffffff"
     bordercolor="#666666"
     borderopacity="1.0"
     inkscape:pageshadow="2"
     inkscape:pageopacity="0.0"
     inkscape:pagecheckerboard="true"
     showgrid="false"
     units="mm"
     width="300mm"
     inkscape:showpageshadow="false"
     inkscape:zoom="0.14152277"
     inkscape:cx="52.995008"
     inkscape:cy="-116.58902"
     inkscape:window-width="1680"
     inkscape:window-height="979"
     inkscape:window-x="1912"
     inkscape:window-y="-8"
     inkscape:window-maximized="1"
     inkscape:current-layer="Layer_1"
     inkscape:document-units="mm" /><path
     style="fill:#fffc00;stroke-width:1;fill-opacity:1"
     d="m 719.25381,983.3343 c -2.2764,0 -4.4484,-0.083 -6.1003,-0.1619 -1.3108,0.1129 -2.6643,0.1619 -4.0199,0.1619 -47.82359,0 -79.79976,-22.6084 -108.01816,-42.5716 -20.22543,-14.2872 -39.29987,-27.7751 -61.6461,-31.4923 -10.97489,-1.8203 -21.89223,-2.7432 -32.44082,-2.7432 -19.00624,0 -34.02664,2.9478 -44.993,5.092 -6.7482,1.3151 -12.56709,2.4469 -17.06447,2.4469 -4.71053,0 -10.4335,-1.0444 -12.8186,-9.1887 -1.89061,-6.4242 -3.24622,-12.6481 -4.55493,-18.6417 -3.27393,-14.9778 -5.64837,-24.1196 -11.25625,-24.9871 -59.98142,-9.2548 -95.42121,-22.8877 -102.48061,-39.398 -0.73961,-1.735 -1.15312,-3.4806 -1.24477,-5.2071 -0.27496,-4.9216 3.19932,-9.2378 8.05053,-10.0413 47.63387,-7.8438 89.98812,-33.0206 125.89257,-74.8548 27.81342,-32.38751 41.47182,-63.33205 42.93826,-66.74878 0.064,-0.15347 0.13855,-0.31546 0.21528,-0.46253 6.92085,-14.04206 8.29778,-26.17647 4.10519,-36.05578 -7.72867,-18.22612 -33.32538,-26.34698 -50.25983,-31.7204 -4.21177,-1.33216 -8.19546,-2.59398 -11.36921,-3.85368 -15.01187,-5.92972 -39.70058,-18.45844 -36.41174,-35.75098 2.39577,-12.60972 19.07444,-21.39134 32.5538,-21.39134 3.74284,0 7.05939,0.65649 9.85161,1.96734 15.23141,7.13613 28.93457,10.75322 40.71941,10.75322 14.65593,0 21.73451,-5.58016 23.44607,-7.16597 -0.42203,-7.8182 -0.93784,-16.084 -1.43661,-23.9022 0,-0.009 -0.0107,-0.10231 -0.0107,-0.10231 -3.44018,-54.72524 -7.73081,-122.82966 9.68962,-161.88441 52.13978,-116.9042 162.71354,-125.99488 195.35046,-125.99488 0.86964,0 14.2254,-0.13215 14.2254,-0.13215 0.6032,-0.0106 1.2576,-0.0192 1.9354,-0.0192 32.7264,0 143.5304,9.10133 195.7021,126.07588 17.4205,39.08032 13.1256,107.24229 9.6747,162.02508 l -0.1619,2.6217 c -0.4732,7.43879 -0.9102,14.47901 -1.2789,21.30394 1.6114,1.4835 8.0889,6.59901 21.2677,7.11695 11.2349,-0.43056 24.1452,-4.03059 38.362,-10.68714 4.3951,-2.06326 9.2612,-2.49168 12.565,-2.49168 4.99399,0 10.07539,0.97195 14.31059,2.73893 l 0.2259,0.0874 c 12.0641,4.2821 19.9654,12.83991 20.1359,21.83041 0.1514,8.38091 -6.0768,20.9075 -36.71009,33.00567 -3.1375,1.24264 -7.1404,2.51299 -11.3692,3.85368 -16.9494,5.3798 -42.5248,13.4964 -50.2535,31.71186 -4.1989,9.87932 -2.8177,22.00946 4.1052,36.04726 0.077,0.15346 0.1428,0.30906 0.2174,0.47105 2.1315,4.99615 53.7235,122.63356 168.83089,141.59716 4.849,0.8078 8.3297,5.1283 8.0526,10.0413 -0.1024,1.7649 -0.5287,3.5297 -1.2746,5.2541 -7.0103,16.4186 -42.4481,30.0323 -102.4465,39.2998 -5.6313,0.8697 -8.0036,9.971 -11.2477,24.8699 -1.34279,6.1536 -2.70909,12.1856 -4.57409,18.5245 -1.7457,5.9617 -5.6292,8.8754 -11.8659,8.8754 h -0.9399 c -4.0606,0 -9.8134,-0.7374 -17.0689,-2.157 -12.682,-2.4682 -26.9054,-4.7659 -44.9929,-4.7659 -10.5464,0 -21.4617,0.925 -32.4493,2.7432 -22.3228,3.7172 -41.3951,17.1838 -61.5843,31.456 -28.2738,19.991 -60.2606,42.6015 -108.0799,42.6015"
     id="path4" /><path
     style="fill:#020202;stroke-width:1"
     d="m 722.09931,238.91544 c 30.8102,0 136.9058,8.27646 186.9034,120.36782 16.4634,36.9105 12.2432,103.77228 8.8584,157.48295 -0.5286,8.52371 -1.0529,16.78525 -1.4792,24.67378 l -0.1791,3.39116 2.2636,2.52578 c 0.9144,1.01457 9.4722,9.95818 28.5062,10.69353 l 0.3069,0.017 0.3197,-0.006 c 12.5842,-0.47958 26.7584,-4.38868 42.1518,-11.59941 2.2679,-1.06146 5.286,-1.57941 8.4789,-1.57941 3.63839,0 7.50489,0.6842 10.69359,2.02702 l 0.4817,0.19183 c 8.0718,2.82845 13.7777,8.16136 13.8651,12.98699 0.047,2.72827 -1.9929,12.55643 -30.60559,23.85957 -2.7965,1.10409 -6.4775,2.27853 -10.7447,3.62348 -18.6204,5.91267 -46.7514,14.83496 -56.2194,37.14496 -5.3308,12.56709 -3.8707,27.39779 4.3354,44.07433 3.3762,7.88001 56.5263,127.59988 176.12469,147.30728 -0.024,0.567 -0.1684,1.1873 -0.4881,1.9184 -2.027,4.7744 -14.9117,21.2698 -95.0887,33.6408 -12.54579,1.9226 -15.61939,15.9859 -19.18319,32.3342 -1.2874,5.853 -2.5961,11.7614 -4.395,17.8638 -0.55,1.8437 -0.6523,1.9482 -2.6281,1.9482 -0.2729,0 -0.5926,0 -0.9421,0 -3.5553,0 -8.9522,-0.7375 -15.208,-1.9652 -11.3927,-2.2189 -26.9566,-4.9408 -46.8538,-4.9408 -11.1049,0 -22.5444,0.9656 -34.0223,2.8818 -24.5353,4.0796 -44.4879,18.192 -65.6192,33.1293 -28.3782,20.0527 -57.7093,40.8025 -102.4614,40.8025 -1.9545,0 -3.8622,-0.066 -5.7741,-0.162 l -0.503,-0.021 -0.5052,0.038 c -1.0977,0.096 -2.2039,0.1449 -3.3336,0.1449 -44.74575,0 -74.08956,-20.7434 -102.45504,-40.8025 -21.13556,-14.9373 -41.09882,-29.0497 -65.62979,-33.1293 -11.46726,-1.9098 -22.91746,-2.8818 -34.01598,-2.8818 -19.89292,0 -35.47602,3.0438 -46.84523,5.2669 -6.25584,1.2234 -11.67188,2.2721 -15.2165,2.2721 -2.90305,0 -2.95846,-0.1705 -3.57232,-2.2679 -1.79896,-6.1066 -3.11407,-12.1557 -4.39508,-18.0001 -3.57232,-16.3654 -6.64802,-30.5055 -19.1874,-32.4302 -80.17062,-12.3817 -93.05743,-28.9047 -95.09084,-33.6664 -0.31759,-0.7503 -0.46039,-1.3897 -0.49237,-1.9567 119.59624,-19.6904 172.73568,-139.41453 176.12257,-147.32438 8.22104,-16.66375 9.67896,-31.49232 4.33113,-44.07433 -9.46795,-22.29721 -37.5947,-31.23229 -56.20235,-37.1343 -4.27784,-1.35348 -7.961,-2.53005 -10.75961,-3.63414 -24.16224,-9.54681 -31.59464,-19.16396 -30.49054,-24.99138 1.28101,-6.72049 12.93157,-13.55395 23.09863,-13.55395 2.28493,0 4.2885,0.36874 5.76987,1.06146 16.51242,7.73934 31.58611,11.66336 44.80756,11.66336 20.78386,0 30.0344,-9.67044 31.02766,-10.77454 l 2.25296,-2.51938 -0.18118,-3.3741 c -0.4199,-7.88428 -0.93784,-16.14368 -1.48349,-24.65034 -3.37411,-53.72346 -7.5944,-120.54048 8.86261,-157.45311 49.81223,-111.67999 155.38985,-120.28896 186.55606,-120.28896 0.76733,0 14.31697,-0.13854 14.31697,-0.13854 0.5542,-0.004 1.1702,-0.0128 1.8161,-0.0128 m 0,-19.26414 h -0.036 c -0.7098,0 -1.3769,0 -2.0121,0.009 -5.0643,0.0512 -13.38981,0.13215 -14.13796,0.14067 -18.25808,0 -54.78918,2.57907 -94.02937,19.89932 -22.43575,9.89637 -42.61641,23.27767 -59.97929,39.77304 -20.70074,19.6542 -37.56486,43.88677 -50.11489,72.03484 -18.37959,41.21391 -14.01649,110.63344 -10.51237,166.42015 l 0.0128,0.0874 c 0.37514,5.97449 0.76946,12.21327 1.12968,18.2922 -2.6963,1.23838 -7.06793,2.54496 -13.51133,2.54496 -10.36742,0 -22.69579,-3.31442 -36.63341,-9.84521 -4.10093,-1.90979 -8.78162,-2.87534 -13.94614,-2.87534 -8.29778,0 -17.04529,2.44265 -24.63329,6.9038 -9.54681,5.60574 -15.71526,13.52837 -17.39058,22.31212 -1.1041,5.81036 -1.05081,17.29467 11.70598,28.94097 7.01676,6.41143 17.3245,12.3241 30.62908,17.58242 3.49133,1.37479 7.63489,2.68777 12.02357,4.07961 15.22928,4.84055 38.27889,12.15359 44.28961,26.30009 3.04586,7.17236 1.73501,16.61047 -3.88565,28.01804 -0.14707,0.3112 -0.29414,0.616 -0.42842,0.93572 -1.40464,3.28031 -14.50886,32.96303 -41.3887,64.26777 -15.27405,17.802 -32.09766,32.6796 -49.97635,44.2321 -21.82189,14.1038 -45.43421,23.3245 -70.17407,27.3999 -9.71519,1.5943 -16.6531,10.2502 -16.11171,20.0869 0.16626,2.8348 0.83127,5.6611 1.98439,8.3958 0.009,0.017 0.0192,0.034 0.0277,0.049 3.92828,9.1887 13.03601,16.9942 27.84327,23.8788 18.09396,8.4043 45.15498,15.4744 80.42426,21.0055 1.7819,3.389 3.63201,11.9063 4.91301,17.738 1.34069,6.1983 2.73893,12.5714 4.73185,19.3409 2.15064,7.3343 7.72867,16.0989 22.05848,16.0989 5.43096,0 11.67614,-1.2234 18.90818,-2.6259 10.59123,-2.0782 25.0745,-4.9131 43.15142,-4.9131 10.02212,0 20.40873,0.8825 30.86354,2.6196 20.15296,3.3549 37.52649,15.6279 57.62829,29.8404 29.42268,20.7988 62.72675,44.3408 113.61112,44.3408 1.3876,0 2.7794,-0.045 4.1542,-0.1407 1.6817,0.079 3.7663,0.1407 5.966,0.1407 50.8992,0 84.1948,-23.5505 113.5855,-44.3322 l 0.047,-0.043 c 20.106,-14.1955 37.4604,-26.4514 57.6069,-29.8063 10.4506,-1.735 20.8351,-2.6196 30.8615,-2.6196 17.269,0 30.9424,2.2018 43.1514,4.5827 7.9674,1.5687 14.1593,2.3233 18.9103,2.3233 l 0.4646,0.01 h 0.4818 c 10.4803,0 18.18129,-5.7528 21.12059,-15.8197 1.9524,-6.6267 3.3464,-12.8506 4.7212,-19.1533 1.1979,-5.4651 3.1119,-14.2254 4.8938,-17.6506 35.2927,-5.5418 62.3431,-12.597 80.4392,-20.9992 14.7731,-6.8526 23.8702,-14.6495 27.8219,-23.7999 1.1851,-2.7431 1.8779,-5.5865 2.0335,-8.481 0.5563,-9.8197 -6.3923,-18.4926 -16.1139,-20.0869 C 999.32801,778.9633 949.79501,665.98739 947.74671,661.18734 c -0.1322,-0.31545 -0.2814,-0.62878 -0.437,-0.93358 -5.6206,-11.41184 -6.9187,-20.83928 -3.8707,-28.02444 5.9979,-14.13371 29.0326,-21.44675 44.2726,-26.28517 4.4121,-1.38971 8.5706,-2.71121 12.0342,-4.07961 15.00339,-5.92546 25.72669,-12.35394 32.80099,-19.6542 8.4492,-8.70275 10.0946,-17.04102 9.9923,-22.49756 -0.2579,-13.20226 -10.3503,-24.93382 -26.4045,-30.67811 -5.4224,-2.24229 -11.6058,-3.42525 -17.90209,-3.42525 -4.2864,0 -10.6339,0.58828 -16.6425,3.39328 -12.8633,6.01924 -24.386,9.31022 -34.2781,9.77914 -5.2605,-0.26643 -8.95,-1.40676 -11.3394,-2.49594 0.3005,-5.14961 0.6331,-10.43989 0.9762,-15.95611 l 0.1428,-2.36166 c 3.5233,-55.82294 7.9014,-125.29576 -10.4868,-166.53952 -12.6033,-28.24824 -29.5271,-52.54263 -50.3109,-72.23945 -17.4311,-16.50603 -37.68,-29.88521 -60.1967,-39.77518 -39.1848,-17.19236 -75.7138,-19.76077 -93.9974,-19.76077"
     id="path6" /><rect
     x="166.25064"
     y="58.184738"
     style="fill:none;stroke-width:1"
     width="1096.063"
     height="1096.0608"
     id="rect8" /></svg>
