<?xml version="1.0" encoding="UTF-8" standalone="no"?>
<!-- Generator: Adobe Illustrator 16.0.0, SVG Export Plug-In . SVG Version: 6.00 Build 0)  -->

<svg
   version="1.1"
   id="Layer_1"
   x="0px"
   y="0px"
   width="300"
   height="300"
   viewBox="0 0 300 300"
   enable-background="new 0 0 884.95 1000"
   xml:space="preserve"
   sodipodi:docname="tiktok.svg"
   inkscape:version="1.1.1 (3bf5ae0d25, 2021-09-20)"
   xmlns:inkscape="http://www.inkscape.org/namespaces/inkscape"
   xmlns:sodipodi="http://sodipodi.sourceforge.net/DTD/sodipodi-0.dtd"
   xmlns="http://www.w3.org/2000/svg"
   xmlns:svg="http://www.w3.org/2000/svg"><defs
   id="defs13" /><sodipodi:namedview
   id="namedview11"
   pagecolor="#ffffff"
   bordercolor="#666666"
   borderopacity="1.0"
   inkscape:pageshadow="2"
   inkscape:pageopacity="0.0"
   inkscape:pagecheckerboard="true"
   showgrid="false"
   inkscape:showpageshadow="false"
   inkscape:zoom="0.824"
   inkscape:cx="194.78155"
   inkscape:cy="231.18932"
   inkscape:window-width="1920"
   inkscape:window-height="1009"
   inkscape:window-x="-8"
   inkscape:window-y="-8"
   inkscape:window-maximized="1"
   inkscape:current-layer="Layer_1" />
<g
   id="g8"
   transform="matrix(0.29,0,0,0.29,21.68225,5)">
	<path
   fill="#ff004f"
   d="m 655.853,360.979 c 64.565,46.13 143.67,73.274 229.097,73.274 V 269.94 c -16.168,0.007 -32.294,-1.68 -48.111,-5.033 v 129.339 c -85.422,0 -164.513,-27.144 -229.098,-73.274 v 335.311 c 0,167.738 -136.048,303.711 -303.864,303.711 -62.614,0 -120.814,-18.923 -169.163,-51.368 55.18,56.39 132.13,91.374 217.262,91.374 167.828,0 303.883,-135.969 303.883,-303.718 V 360.979 Z m 59.351,-165.77 C 682.207,159.18 660.545,112.614 655.853,61.133 V 40 H 610.26 c 11.475,65.428 50.619,121.327 104.944,155.209 z M 240.855,779.91 c -18.434,-24.158 -28.398,-53.716 -28.353,-84.104 0,-76.72 62.23,-138.92 139.002,-138.92 14.306,-0.012 28.528,2.187 42.165,6.508 V 395.41 c -15.935,-2.183 -32.015,-3.108 -48.095,-2.768 v 130.751 c -13.644,-4.324 -27.871,-6.519 -42.183,-6.511 -76.773,0 -138.998,62.201 -138.998,138.929 0.003,54.249 31.107,101.22 76.462,124.099 z"
   id="path2" />
	<path
   d="m 607.741,320.973 c 64.585,46.13 143.676,73.274 229.098,73.274 V 264.908 C 789.157,254.761 746.944,229.852 715.204,195.209 660.879,161.327 621.735,105.427 610.26,40 H 490.5 v 656.278 c -0.271,76.509 -62.394,138.455 -139.001,138.455 -45.145,0 -85.251,-21.505 -110.649,-54.822 -45.358,-22.879 -76.46,-69.851 -76.46,-124.102 0,-76.725 62.224,-138.926 138.997,-138.926 14.708,0 28.885,2.291 42.183,6.508 V 392.642 c -164.868,3.404 -297.463,138.046 -297.463,303.64 0,82.66 33.021,157.598 86.607,212.349 C 183.062,941.078 241.262,960 303.876,960 471.692,960 607.74,824.021 607.74,656.289 V 320.973 Z"
   id="path4" />
	<path
   fill="#00f2ea"
   d="m 836.838,264.908 v -34.974 c -43,0.065 -85.151,-11.97 -121.635,-34.73 32.295,35.338 74.818,59.707 121.635,69.704 z M 610.26,40 c -1.096,-6.252 -1.938,-12.546 -2.52,-18.867 V 0 H 442.384 v 656.283 c -0.265,76.5 -62.384,138.448 -138.998,138.448 -22.496,0 -43.728,-5.334 -62.537,-14.821 25.398,33.317 65.504,54.822 110.649,54.822 76.602,0 138.731,-61.946 139.001,-138.455 V 40 Z M 345.575,392.643 V 355.41 c -13.817,-1.889 -27.747,-2.833 -41.692,-2.826 C 136.047,352.583 0,488.56 0,656.283 0,761.44 53.469,854.111 134.72,908.626 81.133,853.878 48.113,778.939 48.113,696.277 c 0,-165.586 132.589,-300.23 297.462,-303.634 z"
   id="path6" />
</g>
</svg>
