<?xml version="1.0" encoding="UTF-8" standalone="no"?>
<svg
   height="300"
   version="1.1"
   viewBox="0 0 300 300"
   width="300"
   xml:space="preserve"
   id="svg832"
   sodipodi:docname="twitter.svg"
   inkscape:version="1.1.2 (b8e25be8, 2022-02-05)"
   xmlns:inkscape="http://www.inkscape.org/namespaces/inkscape"
   xmlns:sodipodi="http://sodipodi.sourceforge.net/DTD/sodipodi-0.dtd"
   xmlns="http://www.w3.org/2000/svg"
   xmlns:svg="http://www.w3.org/2000/svg"><defs
     id="defs836" /><sodipodi:namedview
     id="namedview834"
     pagecolor="#ffffff"
     bordercolor="#666666"
     borderopacity="1.0"
     inkscape:pageshadow="2"
     inkscape:pageopacity="0.0"
     inkscape:pagecheckerboard="true"
     showgrid="false"
     inkscape:showpageshadow="false"
     inkscape:zoom="1.4042969"
     inkscape:cx="36.317106"
     inkscape:cy="264.5452"
     inkscape:window-width="2556"
     inkscape:window-height="969"
     inkscape:window-x="0"
     inkscape:window-y="25"
     inkscape:window-maximized="0"
     inkscape:current-layer="svg832" /><g
     id="_x32_4-twitter_x2C__tweet"
     transform="matrix(0.60770274,0,0,0.60770274,-5.5722053,-5.5722053)"
     style="fill:#1d9bf0;fill-opacity:1"><g
       id="g828"
       style="fill:#1d9bf0;fill-opacity:1"><g
         id="g826"
         style="fill:#1d9bf0;fill-opacity:1"><path
           d="m 494.604,107.636 c -17.746,7.809 -36.66,12.984 -56.371,15.492 20.283,-12.14 35.76,-31.224 43.035,-54.22 -18.91,11.306 -39.783,19.293 -62.033,23.747 C 401.276,73.481 375.688,61.61 347.774,61.61 c -54.166,0 -97.768,44.085 -97.768,98.126 0,7.776 0.656,15.248 2.268,22.372 C 170.938,178.126 98.97,139.043 50.623,79.497 42.18,94.177 37.23,110.988 37.23,129.08 c 0,33.973 17.447,64.09 43.458,81.521 -15.718,-0.294 -31.14,-4.868 -44.203,-12.073 v 1.074 c 0,47.667 33.914,87.262 78.379,96.381 -7.964,2.188 -16.64,3.232 -25.649,3.232 -6.258,0 -12.586,-0.361 -18.521,-1.674 12.68,38.85 48.647,67.41 91.416,68.334 -33.286,26.108 -75.549,41.838 -121.299,41.838 -8.021,0 -15.717,-0.353 -23.414,-1.342 43.336,28.021 94.697,44.02 150.085,44.02 180.02,0 278.448,-149.53 278.448,-279.14 0,-4.338 -0.156,-8.527 -0.361,-12.681 19.419,-13.818 35.732,-31.072 49.035,-50.934 z m 0,0"
           style="fill:#1d9bf0;fill-opacity:1"
           id="path824" /></g></g></g><g
     id="Layer_1" /></svg>
