<?xml version="1.0" encoding="UTF-8" standalone="no"?>
<svg
   height="300"
   version="1.1"
   viewBox="0 0 300 300"
   width="300"
   xml:space="preserve"
   id="svg834"
   sodipodi:docname="whatsapp.svg"
   inkscape:version="1.1.2 (b8e25be8, 2022-02-05)"
   xmlns:inkscape="http://www.inkscape.org/namespaces/inkscape"
   xmlns:sodipodi="http://sodipodi.sourceforge.net/DTD/sodipodi-0.dtd"
   xmlns="http://www.w3.org/2000/svg"
   xmlns:svg="http://www.w3.org/2000/svg"><defs
     id="defs838" /><sodipodi:namedview
     id="namedview836"
     pagecolor="#ffffff"
     bordercolor="#666666"
     borderopacity="1.0"
     inkscape:pageshadow="2"
     inkscape:pageopacity="0.0"
     inkscape:pagecheckerboard="true"
     showgrid="false"
     inkscape:showpageshadow="false"
     inkscape:zoom="1.4042969"
     inkscape:cx="228.94019"
     inkscape:cy="264.5452"
     inkscape:window-width="1991"
     inkscape:window-height="969"
     inkscape:window-x="0"
     inkscape:window-y="25"
     inkscape:window-maximized="0"
     inkscape:current-layer="svg834" /><g
     id="_x31_3-whatsapp"
     transform="matrix(0.60606187,0,0,0.60606187,-5.1521418,-5.1515357)"
     style="fill:#00c298;fill-opacity:1"><g
       id="g830"
       style="fill:#00c298;fill-opacity:1"><g
         id="g828"
         style="fill:#00c298;fill-opacity:1"><path
           id="path824"
           style="fill:#00c298;stroke-width:0.606062;fill-opacity:1"
           d="M 149.96289 5 C 70.229997 5 5.390625 70.030742 5.390625 150 C 5.390625 181.71885 15.584734 211.12109 32.919922 234.99023 L 14.900391 288.85156 L 70.486328 271.03711 C 93.350012 286.22684 120.62553 295 150.03711 295 C 229.77 295 294.60938 229.94865 294.60938 150 C 294.60938 70.050742 229.7694 5 150.03711 5 L 149.96289 5 z M 95.554688 71.322266 C 97.344994 71.322266 98.951297 71.409088 100.40039 71.482422 C 104.64767 71.665453 106.77974 71.917716 109.58398 78.642578 C 113.07248 87.072293 121.56492 107.87892 122.58008 110.01953 C 123.61099 112.15893 124.63821 115.05674 123.19336 117.86523 C 121.83578 120.76706 120.64506 122.05198 118.51172 124.51562 C 116.37777 126.98411 114.35162 128.86808 112.2207 131.51172 C 110.26979 133.81354 108.06404 136.28101 110.52344 140.54102 C 112.98102 144.71012 121.47512 158.60796 133.98242 169.77344 C 150.12852 184.18256 163.21089 188.7873 167.89453 190.74609 C 171.38302 192.19761 175.53987 191.851 178.08594 189.13281 C 181.32231 185.63341 185.32186 179.83424 189.38672 174.12695 C 192.27824 170.02997 195.92898 169.52161 199.76172 170.9707 C 203.66536 172.33071 224.32573 182.5714 228.57422 184.69141 C 232.82029 186.8302 235.62655 187.84547 236.65625 189.64062 C 237.66837 191.43154 237.66818 199.8619 234.17969 209.75586 C 230.68998 219.63709 216.84323 227.82629 205.80078 230.22266 C 198.24137 231.83296 188.37497 233.1233 155.1543 219.31055 C 112.65421 201.65778 85.286557 158.35597 83.15625 155.54688 C 81.110791 152.73657 65.982422 132.6215 65.982422 111.81055 C 65.982422 91.003837 76.519825 80.869507 80.769531 76.523438 C 84.254993 72.949491 90.023161 71.322266 95.554688 71.322266 z "
           transform="matrix(1.6499966,0,0,1.6499966,8.5010162,8.5000162)" /></g></g></g><g
     id="Layer_1" /></svg>
