<?xml version="1.0" encoding="UTF-8" standalone="no"?>
<svg
   version="1.1"
   width="300"
   height="300"
   viewBox="0 0 300 300"
   xml:space="preserve"
   id="svg10"
   sodipodi:docname="xing.svg"
   inkscape:version="1.1.1 (3bf5ae0d25, 2021-09-20)"
   xmlns:inkscape="http://www.inkscape.org/namespaces/inkscape"
   xmlns:sodipodi="http://sodipodi.sourceforge.net/DTD/sodipodi-0.dtd"
   xmlns="http://www.w3.org/2000/svg"
   xmlns:svg="http://www.w3.org/2000/svg"><sodipodi:namedview
   id="namedview12"
   pagecolor="#ffffff"
   bordercolor="#666666"
   borderopacity="1.0"
   inkscape:pageshadow="2"
   inkscape:pageopacity="0.0"
   inkscape:pagecheckerboard="true"
   showgrid="false"
   inkscape:showpageshadow="false"
   inkscape:zoom="1.609375"
   inkscape:cx="133.28155"
   inkscape:cy="156.8932"
   inkscape:window-width="1680"
   inkscape:window-height="979"
   inkscape:window-x="1912"
   inkscape:window-y="-8"
   inkscape:window-maximized="1"
   inkscape:current-layer="svg10" />

<defs
   id="defs2">
</defs>
<g
   style="opacity:1;fill:none;fill-rule:nonzero;stroke:none;stroke-width:0;stroke-linecap:butt;stroke-linejoin:miter;stroke-miterlimit:10;stroke-dasharray:none"
   transform="matrix(3.2222222,0,0,3.2222222,5.0005974,5.000001)"
   id="g8">
	<path
   d="m 13.677,17.774 c -0.782,0 -1.44,0.274 -1.77,0.811 -0.342,0.555 -0.289,1.269 0.074,1.991 l 8.776,15.193 c 0.015,0.029 0.015,0.047 0,0.074 L 6.966,60.181 c -0.36,0.717 -0.342,1.437 0,1.991 0.33,0.534 0.915,0.885 1.696,0.885 h 12.98 c 1.941,0 2.876,-1.31 3.54,-2.508 0,0 13.488,-23.854 14.013,-24.78 -0.053,-0.086 -8.924,-15.561 -8.924,-15.561 -0.646,-1.151 -1.623,-2.434 -3.614,-2.434 z"
   style="opacity:1;fill:#005a5f;fill-rule:nonzero;stroke:none;stroke-width:1;stroke-linecap:butt;stroke-linejoin:miter;stroke-miterlimit:10;stroke-dasharray:none"
   stroke-linecap="round"
   id="path4" />
	<path
   d="m 68.208,0 c -1.938,0 -2.779,1.221 -3.475,2.472 0,0 -27.963,49.59 -28.884,51.219 0.047,0.089 18.444,33.837 18.444,33.837 0.643,1.15 1.637,2.472 3.626,2.472 h 12.966 c 0.782,0 1.392,-0.295 1.723,-0.829 0.345,-0.555 0.336,-1.286 -0.027,-2.006 l -18.3,-33.433 c -0.018,-0.027 -0.018,-0.059 0,-0.085 L 83.02,2.832 C 83.38,2.115 83.389,1.383 83.047,0.829 82.717,0.295 82.103,0 81.321,0 Z"
   style="opacity:1;fill:#d4d600;fill-rule:nonzero;stroke:none;stroke-width:1;stroke-linecap:butt;stroke-linejoin:miter;stroke-miterlimit:10;stroke-dasharray:none"
   stroke-linecap="round"
   id="path6" />
</g>
</svg>
